PathFileType	4	(X/Y/Z)	c:/Users/goper/Files/vsCode/490R/osim_files/A05/A05_Fast_02.trc
DataRate	CameraRate	NumFrames	NumMarkers	Units                	OrigDataRate	OrigDataStartFrame	OrigNumFrames
250.00	250.00	9	36	mm	250.0	3385	3868
                Frame#	Time	LPSIS			LASIS			LTH1			LTH2			LTH3			LTH4			LLFE			LMFE			LSH1			LSH2			LSH3			LSH4			LLMAL			LMMAL			LCAL			LMTP5			LTOE			LMTP1			RPSIS			RASIS			RTH1			RTH2			RTH3			RTH4			RLFE			RMFE			RSH1			RSH2			RSH3			RSH4			RLMAL			RMMAL			RCAL			RMTP1			RTOE			RMTP5		
		X1	Y1	Z1	X2	Y2	Z2	X3	Y3	Z3	X4	Y4	Z4	X5	Y5	Z5	X6	Y6	Z6	X7	Y7	Z7	X8	Y8	Z8	X9	Y9	Z9	X10	Y10	Z10	X11	Y11	Z11	X12	Y12	Z12	X13	Y13	Z13	X14	Y14	Z14	X15	Y15	Z15	X16	Y16	Z16	X17	Y17	Z17	X18	Y18	Z18	X19	Y19	Z19	X20	Y20	Z20	X21	Y21	Z21	X22	Y22	Z22	X23	Y23	Z23	X24	Y24	Z24	X25	Y25	Z25	X26	Y26	Z26	X27	Y27	Z27	X28	Y28	Z28	X29	Y29	Z29	X30	Y30	Z30	X31	Y31	Z31	X32	Y32	Z32	X33	Y33	Z33	X34	Y34	Z34	X35	Y35	Z35	X36	Y36	Z36

3385	13.53600	0.00000	0.00000	0.00000	-2562.49829	1008.17487	485.17139	0.00000	0.00000	0.00000	-2522.74414	675.24731	538.40356	-2548.05859	737.36377	557.99872	-2564.56738	697.67938	558.83307	-2633.84863	530.90973	546.61346	-2645.57300	524.86438	447.59592	-2582.76025	441.98303	552.81415	-2573.84888	399.43973	554.42285	-2640.49292	424.24228	547.48175	-2624.29028	383.25348	551.80475	-2552.27173	173.18246	553.02368	-2565.20508	171.51328	463.30713	0.00000	0.00000	0.00000	-2663.27222	92.38524	598.82947	-2723.71436	103.10647	544.92566	-2690.16284	99.25796	491.62436	-2407.70996	1042.51819	269.86832	0.00000	0.00000	0.00000	-2541.01953	608.04449	155.54745	-2549.15161	569.81580	168.77097	-2593.80884	621.52673	187.13696	-2591.48975	575.50647	199.42802	-2519.72632	529.56683	166.65300	-2512.53174	510.42719	309.73447	-2455.37183	273.36719	169.92566	-2446.40991	235.11511	167.90767	-2511.10010	259.08203	189.26477	-2493.82031	213.49297	192.55190	-2426.50195	118.67218	200.63242	-2462.81860	140.27849	293.48004	-2360.49048	77.10740	274.90494	-2572.06006	55.92106	288.64972	-2606.04688	64.11443	236.51976	-2543.59912	45.89230	171.14508
3386	13.54000	0.00000	0.00000	0.00000	-2566.22168	1007.72882	485.20862	0.00000	0.00000	0.00000	-2526.92700	675.33173	538.58118	-2551.98999	736.33032	557.94397	-2568.23682	696.47705	558.86346	-2637.73462	530.45905	545.99719	-2648.41577	524.10809	446.77835	-2588.40479	440.61310	553.28741	-2580.80103	398.12195	555.39929	-2646.39551	423.96005	547.34851	-2630.93701	382.68271	552.10529	-2563.13062	171.37721	555.36060	-2573.96289	168.85107	465.24219	0.00000	0.00000	0.00000	-2676.23560	92.91668	600.34106	-2735.65503	104.48065	545.55133	-2701.52344	99.73947	492.72751	-2410.99048	1042.14966	270.35425	0.00000	0.00000	0.00000	-2542.19946	607.59943	155.58167	-2549.48706	568.53418	169.19279	-2595.74072	621.15344	187.14763	-2593.19189	575.06268	199.35388	-2520.50952	529.23688	166.77516	-2514.41040	510.34564	309.83038	-2455.96313	273.42664	169.97209	-2446.83154	235.11903	167.95074	-2511.67603	258.96912	189.32498	-2494.17603	213.41656	192.49159	-2426.46338	119.04610	200.44150	-2462.97559	140.28381	293.50262	-2360.54419	77.20272	274.95432	-2572.13062	55.94752	288.59277	-2606.10596	64.06147	236.49289	-2543.64551	45.88256	171.14648
3387	13.54400	0.00000	0.00000	0.00000	-2569.96094	1007.23578	485.25607	0.00000	0.00000	0.00000	-2529.32593	673.50873	540.50586	-2556.11011	735.94305	557.60614	-2572.26709	696.08295	558.55762	-2641.60181	530.07196	545.39667	-2651.26294	523.41431	446.00781	-2594.08203	439.27597	553.78973	-2587.38843	397.38852	556.18835	-2652.27246	423.67331	547.23846	-2637.77979	382.18524	552.41504	-2573.86108	169.57594	557.67303	-2586.29297	168.33875	468.03555	0.00000	0.00000	0.00000	-2689.00293	93.59299	601.74261	-2747.48975	105.91288	546.12250	-2712.78442	100.26173	493.74783	-2414.12671	1041.84277	270.88898	0.00000	0.00000	0.00000	-2543.28638	606.96680	155.50233	0.00000	0.00000	0.00000	-2597.72046	620.81512	187.04262	-2594.95166	574.69489	199.23016	-2520.49072	527.07300	168.26025	-2516.01294	510.24585	309.81644	-2456.57935	273.54956	169.99130	-2447.39624	235.03424	168.10735	-2512.35156	258.84457	189.31999	-2494.63696	213.36313	192.50636	-2426.63989	119.18417	200.47983	-2463.18945	140.38956	293.51944	-2360.78711	76.77361	275.36331	-2572.14600	55.89083	288.59039	-2606.45312	63.99651	236.58301	-2543.65967	45.86295	171.11272
3388	13.54800	0.00000	0.00000	0.00000	-2573.72852	1006.74622	485.36752	0.00000	0.00000	0.00000	-2534.80420	674.29248	539.07764	-2560.65869	735.73828	557.38354	-2576.61279	695.80798	558.42371	-2645.49683	529.60590	544.86841	-2654.04321	522.65240	445.25394	-2599.65796	437.87427	554.33234	-2593.46167	395.08661	557.12378	-2658.14648	423.47192	547.16266	-2644.38477	381.68271	552.74261	-2584.18896	167.49510	560.06726	-2596.34082	166.61443	470.25397	0.00000	0.00000	0.00000	-2701.69702	94.12252	603.19012	-2759.29224	107.53654	546.55035	-2723.45435	100.51656	494.71060	-2417.27026	1041.54700	271.35870	0.00000	0.00000	0.00000	0.00000	0.00000	0.00000	-2551.57446	567.42255	168.99965	-2599.67896	620.54535	186.95741	-2596.61426	574.33527	199.07352	-2522.03687	526.96124	168.28479	-2517.75732	510.08755	309.88022	-2457.25513	273.68503	170.05678	-2447.91528	234.93527	168.18753	-2512.99146	258.72623	189.27042	-2495.14111	213.32117	192.48891	-2426.96313	119.08113	200.72501	-2463.42529	140.46509	293.49548	-2360.88721	76.83791	275.39453	-2572.19141	55.88205	288.62823	-2605.93774	63.71058	236.48511	-2543.63354	45.79675	171.09544
3389	13.55200	0.00000	0.00000	0.00000	-2577.49268	1006.21136	485.43005	0.00000	0.00000	0.00000	-2538.85156	673.90576	539.42102	-2565.42236	736.13940	556.96973	-2582.71460	696.03345	554.01855	-2649.33252	529.18005	544.44525	-2656.81494	521.84778	444.63272	-2605.34009	436.64182	554.89709	-2600.35474	393.90952	558.13159	-2663.95239	423.21130	547.06665	-2651.17822	380.97739	553.41321	-2595.41626	166.53323	562.36066	-2605.96899	164.84911	472.40982	-2515.72632	116.65280	504.27637	-2714.30396	94.99953	604.37628	-2771.63745	109.63557	547.05145	-2735.09521	101.68565	495.51434	-2420.57178	1041.27649	272.00311	-2614.43335	981.45404	192.88240	0.00000	0.00000	0.00000	0.00000	0.00000	0.00000	-2601.58374	620.23926	186.89293	-2598.36279	573.99982	198.95473	-2523.60669	526.86298	168.29028	-2519.59009	510.03021	309.92014	-2457.92188	273.81796	170.07559	-2448.29077	234.95726	168.20012	-2513.55127	258.58591	189.22340	-2495.54321	213.21930	192.46202	-2427.64429	119.80962	200.37344	-2463.71875	140.56171	293.60248	-2360.99707	76.94759	275.53458	-2572.18945	55.84326	288.59769	-2605.96826	63.64582	236.43173	-2543.63501	45.77800	171.06342
3390	13.55600	0.00000	0.00000	0.00000	-2581.23511	1005.65173	485.52090	0.00000	0.00000	0.00000	-2542.93799	673.58313	539.84479	-2569.63037	735.74359	556.69141	-2586.65454	695.63245	556.22174	-2653.13110	528.67505	544.03448	-2659.52563	520.99072	443.99951	-2611.01538	435.39410	555.57117	-2607.20093	393.30740	559.04834	-2669.76782	423.06906	547.00720	-2657.77856	380.87427	553.46338	-2605.77881	164.70036	564.58850	-2615.83594	163.31038	474.53714	-2526.47339	113.39574	507.69788	-2726.98413	96.14190	605.43561	-2782.54980	111.13612	547.04590	-2746.16748	102.54945	496.24365	-2423.90454	1041.21423	272.45438	0.00000	0.00000	0.00000	0.00000	0.00000	0.00000	-2563.40283	570.55658	168.54628	-2603.52637	619.94379	186.80920	-2600.16138	573.64246	198.79781	-2525.21338	526.78351	168.31683	-2521.19312	509.84229	309.86633	-2456.22266	271.10229	170.98909	-2448.66309	235.01874	168.18935	-2513.83643	258.33133	189.44269	-2495.88330	213.12381	192.45662	-2427.11597	119.67741	200.48917	-2464.03784	140.63890	293.56717	-2360.72974	77.70671	275.08200	-2572.15625	55.81274	288.62836	-2605.98633	63.54997	236.41739	-2543.65234	45.74960	171.01659
3391	13.56000	0.00000	0.00000	0.00000	-2585.08130	1005.25214	485.77420	0.00000	0.00000	0.00000	-2545.42090	671.91663	541.81818	-2573.97900	735.34222	556.57404	-2590.99487	695.28912	556.01691	-2656.89038	528.17804	543.69574	-2661.13965	519.14136	444.76135	-2616.65771	434.18561	556.15973	-2613.45142	391.40295	560.07544	-2675.51514	422.86966	546.97137	-2664.42041	380.51666	553.82452	-2616.99292	163.92891	566.79492	-2625.48999	161.87616	476.56699	0.00000	0.00000	0.00000	-2739.54688	97.45884	606.33905	-2793.97534	113.07507	547.15906	-2757.05664	103.51706	496.87494	-2427.11548	1040.94373	273.10559	0.00000	0.00000	0.00000	0.00000	0.00000	0.00000	-2565.09814	570.39856	168.52208	-2605.46802	619.65283	186.74670	-2601.92871	573.33710	198.56841	-2526.73730	526.61035	168.34592	-2522.88037	509.69955	309.87405	-2456.88086	271.17477	171.01509	-2449.20190	234.98088	168.24364	-2514.46021	258.23987	189.41144	-2496.29883	213.06242	192.43309	-2427.26221	119.82658	200.49069	-2464.38550	140.76584	293.69373	-2361.15112	77.18573	275.54697	-2572.13135	55.76722	288.59235	-2605.95923	63.42174	236.38890	-2543.64990	45.71589	170.99834
3392	13.56400	0.00000	0.00000	0.00000	-2588.84717	1004.57806	485.79306	0.00000	0.00000	0.00000	-2552.37744	671.96039	541.02234	-2577.88379	734.33569	556.62085	-2594.93384	695.08960	556.06958	-2660.67896	527.72937	543.40967	-2663.77930	518.19110	444.39032	-2622.22925	432.95508	556.85718	-2620.17456	390.87161	561.02191	-2681.21851	422.71570	546.97034	-2670.93384	379.93478	554.40057	-2627.75073	162.95818	568.91803	-2633.17554	159.45972	478.20483	-2548.45215	107.66699	514.68439	-2751.98096	99.08376	606.93359	-2805.86279	115.46361	547.30817	-2768.94287	105.30033	497.75534	-2430.31323	1040.28406	273.74872	-2623.72021	980.98358	193.08578	0.00000	0.00000	0.00000	0.00000	0.00000	0.00000	-2607.37256	619.37891	186.66747	-2603.76587	573.06287	198.44505	-2528.33228	526.53650	168.36757	-2524.69312	509.64133	309.88824	-2457.49414	271.27429	171.04283	-2449.71216	234.95401	168.27129	-2514.94482	258.08160	189.37448	-2496.75513	213.07721	192.39238	-2428.13599	120.26993	200.40968	-2464.66895	140.86253	293.72009	-2360.86987	77.95158	275.11420	-2572.30322	55.78579	288.60373	-2605.98999	63.35412	236.35616	-2543.63428	45.65735	170.97472
3393	13.56800	0.00000	0.00000	0.00000	-2592.69092	1004.01147	485.93472	0.00000	0.00000	0.00000	-2557.12671	671.98309	542.98236	-2582.10254	733.97992	556.52600	-2599.03394	694.98785	555.58057	-2664.38696	527.21088	543.15546	-2666.29028	517.20288	444.21359	-2627.89502	431.83041	557.57959	-2626.47217	389.07770	562.07483	-2686.87817	422.63745	546.99792	-2677.65649	379.77094	554.79797	-2637.89087	161.48842	570.87512	-2642.22510	157.99432	479.96295	-2559.41772	105.05391	518.00891	-2763.93945	100.12953	607.79907	-2816.52539	117.37516	547.05328	-2778.70410	106.00652	497.89581	-2433.41602	1040.40662	274.24655	-2626.88452	980.79797	193.11830	0.00000	0.00000	0.00000	0.00000	0.00000	0.00000	-2609.26123	619.04803	186.59363	-2605.62451	572.73444	198.32280	-2529.85449	526.44312	168.34869	-2526.30591	509.45596	309.88333	-2460.40674	274.18448	170.17827	-2450.09326	234.94687	168.23842	-2515.88794	258.06271	189.11098	-2497.22168	213.01303	192.34715	-2428.19385	120.11497	200.64882	-2464.39136	140.67375	293.57916	-2360.90527	78.10596	275.09921	-2572.17822	55.77528	288.57394	-2606.04395	63.30902	236.32048	-2543.61963	45.63739	170.94981
